<?xml version="1.0" encoding="UTF-8"?>
<svg width="640" height="480" xmlns="http://www.w3.org/2000/svg">
 <g>
  <title>Layer 1</title>
  <path transform="rotate(-45 128.64016723632812,443.75421142578125) " clip-rule="evenodd" d="m128.640167,435.077209c4.768997,0 8.639999,3.886963 8.639999,8.675964s-3.871002,8.678009 -8.639999,8.678009c-4.770004,0 -8.639999,-3.889008 -8.639999,-8.678009s3.869995,-8.675964 8.639999,-8.675964" fill="#FFFFFF" fill-rule="evenodd" id="svg_2"/>
  <path transform="rotate(-45 254.73062133789062,234.7323303222656) " clip-rule="evenodd" d="m151.365433,148.909653l-5.867996,-3.167999c-2.052002,2.375992 -4.751999,3.707993 -8.244003,4.139999c-3.456009,0.360001 -5.147995,-0.324005 -12.564003,-1.764008c-7.632004,-1.655991 -21.635994,-5.79599 -32.436005,-6.983994c-10.943001,-1.223999 -21.922997,-1.908005 -31.967999,0.468002c-10.007999,2.304001 -19.692001,6.444 -27.504002,13.82399c-7.990997,7.452011 -14.866999,21.132004 -19.366999,30.348007c-4.5,8.964005 -6.335999,16.595993 -7.308,23.867996c-1.044,7.307999 -0.577,13.644012 1.259,19.548004c-2.232,1.727997 -3.348,3.815994 -3.348,6.660004c-0.072,2.770996 1.044,6.011993 3.204,9.86499c-0.972,6.695007 0.252,14.578018 3.816,24.336014c3.599999,9.756012 9.684,24.118988 17.136,33.371002c7.271999,9.035004 16.343998,16.632996 26.388,20.988007c9.971996,4.210999 22.572002,5.436005 33.228001,4.931976c10.584,-0.610962 21.708,-5.290985 30.059998,-7.812988c8.208,-2.519989 13.751999,-6.190979 19.548004,-6.984009c5.759995,-0.862976 10.692001,-0.179993 14.940002,2.05304l5.255997,-3.313019c-1.944,-1.90799 -2.951996,-4.139008 -3.024002,-6.839996c-0.216003,-2.843994 -0.072006,-6.119019 2.520004,-9.39502c2.591995,-3.349976 6.695999,-7.235992 12.888,-10.01001c6.155991,-2.843994 17.063995,-5.145996 23.687988,-6.335999c6.480011,-1.222961 11.088013,-1.11499 14.940002,-0.503967c3.671997,0.43399 5.76001,0.86499 7.632004,3.815979c1.835999,2.953003 3.095993,7.66803 3.636002,14.14801l6.552002,3.347992c2.231995,-2.053009 4.860001,-3.491974 7.884003,-4.462982c2.87999,-1.045013 4.931992,-1.656006 10.187988,-1.262024c5.220001,0.504028 13.463028,3.16803 21.276016,3.81601c7.774994,0.395996 17.496002,0.721008 24.983978,-0.970978c7.416016,-1.90802 13.320007,-4.572021 19.223022,-9.504028c5.724976,-5.040985 11.448975,-11.484009 15.083984,-19.729004c3.528992,-8.171997 5.725006,-17.785004 6.445007,-28.979996l115.73999,-8.424011c3.958984,-0.612 8.100006,-1.187988 12.562988,-1.583984c4.430023,-0.504013 9.14502,-0.828003 14.14801,-1.116013c0.21701,0.900009 1.007996,1.475998 2.519989,1.584c1.44101,0.108002 3.457001,-0.251999 6.193024,-0.936005c-0.576019,2.556 -0.14502,4.17601 1.294983,5.255005c1.44101,0.938004 5.437988,1.477005 7.128998,0.792999c1.584015,-0.755997 2.339996,-2.411987 2.412018,-5.112c2.411987,0 4.103973,-0.467987 5.075989,-1.259995c0.936005,-0.936005 1.042999,-1.979996 0.46701,-3.672012c2.376984,1.188019 4.067993,0.972015 5.075989,-0.791992c1.007996,-1.799988 1.800995,-7.811996 0.972992,-9.68399c-0.936005,-1.944 -3.061005,-2.484009 -6.515991,-1.764008c0.035004,-1.944 -0.395996,-3.132004 -1.44101,-3.959991c-1.079987,-0.828003 -2.664001,-1.044006 -4.751984,-0.792007c0.251984,-2.483994 -0.180023,-4.104004 -1.295013,-5.255997c-1.225006,-1.188004 -3.85199,-1.656006 -5.399994,-1.404007c-1.618988,0.216003 -3.312988,1.62001 -3.959015,2.844009c-0.685974,1.079987 -0.792999,2.591995 -0.181976,4.139984c-1.979004,-0.575989 -3.563019,-0.68399 -4.89502,-0.179993c-1.368988,0.395996 -2.483978,1.403992 -3.204987,2.880005c0.468994,-0.503998 -2.339996,-0.828003 -8.424011,-0.972c-6.190979,-0.180008 -15.371002,-0.180008 -28.11499,0l-107.171997,0.539993c0.432007,-4.787994 -0.43399,-10.223999 -2.880981,-16.703995c-2.447021,-6.587997 -6.335999,-15.660004 -11.664001,-21.779999c-5.473022,-6.12001 -13.104004,-11.340012 -20.375,-14.292007c-7.201019,-3.024002 -14.725006,-3.815994 -22.861023,-3.491989c-8.423981,0.251999 -19.763992,3.743988 -26.386993,5.075989c-6.444,1.223999 -8.639999,2.484009 -12.419998,2.23201c-3.959991,-0.468002 -7.667999,-1.908005 -11.123993,-4.608002l-6.192001,3.959991c1.835999,3.636002 2.231995,6.768005 1.043991,9.684006c-1.259995,2.807999 -3.276001,5.723999 -8.136002,7.343994c-4.967987,1.548004 -13.571991,2.23201 -20.807999,1.908005c-7.343994,-0.468002 -16.307999,-1.908005 -22.571991,-4.608002c-6.372009,-2.880005 -12.419998,-7.559998 -14.796005,-12.095993c-2.339996,-4.605011 -2.123993,-9.645004 0.792007,-15.261002z" fill-rule="evenodd" stroke="#000000" stroke-miterlimit="10" stroke-width="0.036" id="svg_3"/>
  <path transform="rotate(-45 193.976318359375,295.52758789062506) " clip-rule="evenodd" d="m351.268646,272.315948c0.251984,-3.23999 -0.324005,-7.164001 -1.584015,-11.915985c-1.369019,-4.895996 -2.27002,-10.692017 -6.192993,-16.559998c-4.030975,-6.012024 -10.835999,-14.14801 -17.496002,-18.432007c-6.803009,-4.175995 -15.622986,-6.084 -22.571991,-6.839996c-7.09201,-0.828003 -12.996002,0.64798 -19.223022,1.907974c-6.408966,1.152023 -12.92395,4.14003 -18.144989,4.932022c-5.220001,0.575989 -9.503998,0 -12.707993,-0.612c-3.276001,-0.647995 -5.399994,-1.512009 -6.516006,-2.880005l-2.375992,1.115997c1.151993,2.916016 1.475998,5.435989 1.115997,7.955994c-0.395996,2.376007 -0.972,4.644012 -3.671997,6.660019c-2.951996,2.051987 -7.128006,4.607986 -13.5,5.580002c-6.552002,0.828003 -16.811996,0.899994 -24.804001,-0.324005c-8.028,-1.332016 -17.171997,-4.104004 -22.572006,-7.488022c-5.363998,-3.491989 -8.315994,-9.035995 -9.539993,-13.031998c-1.367996,-4.031982 -0.684006,-7.631989 1.763992,-10.944l-1.90799,-1.439987c-0.143997,2.268005 -2.772003,3.383987 -8.279999,3.348007c-5.580002,-0.144012 -16.560013,-2.339996 -24.480011,-3.81601c-7.848007,-1.548004 -14.903999,-4.356003 -22.716003,-5.112c-8.063995,-0.864014 -16.235001,-1.583984 -24.804001,0.180008c-8.639999,1.692001 -17.388,5.076004 -26.531998,10.151993c6.084,4.715988 11.015999,10.872009 14.940002,18.468002c3.815994,7.595993 8.603996,16.740005 8.243996,26.856003c-0.395996,10.079987 -3.996002,20.772003 -10.655998,32.903992c5.687996,-3.384003 12.204002,-6.335999 20.375999,-9.395996c7.991997,-3.131989 21.276001,-7.415985 27.648003,-8.567993c6.155991,-1.188019 8.244003,-0.179993 10.151993,2.052002c1.800003,2.195984 1.116013,6.372009 1.440002,10.97998c0.360001,4.5 0.576004,11.269012 0.64801,15.876007c-0.072006,4.393005 1.043991,9.106995 -0.972,10.835999c-2.160004,1.656006 -5.292007,0.611023 -11.736008,-0.503998c-6.659996,-1.225006 -17.531998,-4.824005 -27.18,-6.335999c-9.720001,-1.621002 -21.599998,-2.843994 -30.204002,-2.700989c-8.603996,0.182007 -15.551998,3.061005 -20.843998,3.636993c-5.291996,0.359009 -8.999996,0.179993 -10.98,-0.936005c-1.475998,2.699005 -1.007999,7.52301 1.116001,14.61499c2.124001,7.057007 6.695999,19.296997 11.771999,27.828003c5.004002,8.460999 10.403999,16.740021 18.287994,22.895996c7.88401,6.046997 19.224007,11.195007 28.764008,13.355042c9.395996,1.942993 18.612,0.468994 27.647995,-1.115021c9.000008,-1.693024 19.728004,-6.300995 25.920006,-8.423981c6.012009,-2.197021 6.444016,-3.637024 10.188004,-4.465027c3.671997,-0.862976 8.748001,-0.828003 11.772003,-0.468994c2.843994,0.253998 4.643997,1.044983 5.399994,2.231995l2.520004,-1.618988c-2.052002,-1.26001 -3.059998,-3.167999 -3.024002,-5.868988c-0.108002,-2.879028 -0.071991,-6.516022 3.024002,-10.332031c2.951996,-3.886993 7.524002,-8.78299 15.263992,-11.915985c7.848007,-3.167999 23.14801,-5.902008 31.17601,-6.695007c7.884003,-0.899994 12.23999,-1.47699 16.127991,1.764008c3.780014,3.276978 5.904007,8.927979 6.516006,17.496002l2.520004,2.053009c2.412003,-3.061035 5.724014,-4.824036 10.331985,-5.580017c4.572021,-0.721008 10.332031,0.503998 16.847992,1.294983c6.373016,0.721008 14.579987,2.594025 21.312012,2.846008c6.552979,0.143005 12.096008,0.287018 18.432007,-1.90799c6.372986,-2.376984 13.860962,-6.011993 19.548981,-11.735992c5.579987,-5.939026 10.69101,-15.660004 13.535004,-22.752014c2.770996,-7.019989 3.492004,-13.285004 2.700989,-19.079987l-113.508972,10.187988c1.007996,-2.80899 1.511993,-6.264008 1.908005,-10.511993c0.287994,-4.393005 0.467987,-9.68399 0,-14.76001c-0.576004,-5.003998 -1.584,-10.044006 -3.167999,-15.119995c37.62001,0.036011 75.276962,0.108002 112.932999,0.179993z" fill="#ffffff" fill-rule="evenodd" stroke="#000000" stroke-miterlimit="10" stroke-width="1.036" id="svg_4"/>
  <path transform="rotate(-45 187.30410766601562,301.4886169433594) " clip-rule="evenodd" d="m181.701477,282.487854c1.440002,-0.612 2.987991,-0.936005 4.5,-0.828003c1.475998,-0.03598 3.636002,-0.575989 4.679993,1.296021c0.972,1.90799 1.008011,5.867981 1.368011,9.64798c0.360001,3.600006 0.720001,7.524017 0.647995,12.20401c-0.216003,4.714996 -0.324005,13.355011 -1.835999,15.622986c-1.62001,2.018005 -4.104004,0.938019 -7.596008,-3.23999l0.180008,-4.104004c0.972,0.324005 1.655991,0.109009 2.195999,-0.936005c0.360001,-1.151978 0.576004,-1.942993 0.647995,-5.14798c0.143997,-3.313019 0.28801,-11.33902 0,-13.96701c-0.468002,-2.627991 -1.332001,-2.988007 -2.591995,-1.367981c-0.251999,-1.980011 -0.503998,-3.672028 -0.899994,-5.220001c-0.396011,-1.620026 -0.82901,-2.808014 -1.296005,-3.960022z" fill-rule="evenodd" stroke="#000000" stroke-miterlimit="10" stroke-width="0.036" id="svg_5"/>
  <path transform="rotate(-45 212.17065429687494,327.3249816894531) " clip-rule="evenodd" d="m183.636795,336.947876l3.203995,2.483978c2.23201,-1.47699 3.960007,-1.835999 5.580002,-1.079987c1.512009,0.645996 3.744003,3.743988 3.636002,5.39801c-0.251999,1.620972 -2.519989,4.212982 -4.571991,4.464966c-2.087997,0.14502 -5.904007,-1.367004 -7.703995,-3.563965c-1.944,-2.340027 -4.644012,-6.695007 -3.384018,-10.008026c1.26001,-3.563995 5.652008,-7.774994 11.088013,-10.11499s14.723999,-2.77301 21.203995,-3.38501c6.408005,-0.575989 12.492004,-0.035004 16.884003,-0.324005c4.21199,-0.432007 6.804001,-1.151978 8.604004,-2.159973c1.763992,-1.008026 2.556,-2.375 2.231995,-3.959015l-2.231995,-1.656006c-2.195999,0.359009 -3.708008,0.179993 -4.536011,-0.68399c-0.935989,-0.973022 -1.655991,-3.529022 -0.755997,-4.464996c0.936005,-1.042999 3.744003,-1.980011 5.796005,-1.152008c1.90799,0.792999 4.931992,3.457001 5.472,6.192993c0.431992,2.734009 -0.324005,7.270996 -2.807999,9.863007c-2.628006,2.375 -7.344009,4.031006 -12.348007,4.968994c-5.112,0.756012 -11.664001,0.143005 -17.712006,0.503998c-6.191986,0.286987 -13.751999,0.645996 -18.395996,2.051025c-4.679993,1.441986 -7.630997,3.599976 -9.251999,6.625z" fill-rule="evenodd" stroke="#000000" stroke-miterlimit="10" stroke-width="0.036" id="svg_6"/>
  <path transform="rotate(-45 156.94522094726568,274.696044921875) " clip-rule="evenodd" d="m128.411362,265.111481l3.20401,-2.484009c2.231995,1.404022 3.959991,1.764008 5.579987,1.080017c1.512009,-0.756012 3.744003,-3.85202 3.636002,-5.399994c-0.251999,-1.728027 -2.520004,-4.284027 -4.571991,-4.464005c-2.088013,-0.251999 -5.904007,1.259995 -7.70401,3.56398c-1.944008,2.232025 -4.644012,6.588013 -3.38401,10.008026c1.260002,3.455994 5.652016,7.703979 11.08802,10.115997c5.435989,2.231995 14.723999,2.664001 21.203995,3.384003c6.408005,0.467987 12.492004,-0.072021 16.884003,0.323975c4.21199,0.360016 6.804001,1.080017 8.603989,2.160004c1.764008,0.972015 2.556015,2.304016 2.23201,3.996002l-2.23201,1.656006c-2.195999,-0.467987 -3.707993,-0.252014 -4.535995,0.64801c-0.936005,0.863983 -1.655991,3.455994 -0.755997,4.463989c0.936005,0.972015 3.744003,1.872009 5.796005,1.152008c1.90799,-0.899994 4.931992,-3.563995 5.472,-6.192017c0.431992,-2.807983 -0.324005,-7.343994 -2.807999,-9.863983c-2.628006,-2.484009 -7.344009,-4.140015 -12.348007,-4.968018c-5.112,-0.828003 -11.664001,-0.251984 -17.712006,-0.503998c-6.192001,-0.395996 -13.751999,-0.755981 -18.395996,-2.052002c-4.679993,-1.475983 -7.630997,-3.635986 -9.251999,-6.623993z" fill-rule="evenodd" stroke="#000000" stroke-miterlimit="10" stroke-width="0.036" id="svg_7"/>
  <path transform="rotate(-45 256.0996704101562,209.89486694335935) " clip-rule="evenodd" d="m85.495667,212.486877l59.723999,-4.680008l281.484009,-1.979996l-0.21698,2.231995l-281.267029,1.475998l-59.723999,4.427994l0,-1.475983l0,0z" fill-rule="evenodd" stroke="#000000" stroke-miterlimit="10" stroke-width="0.036" id="svg_8"/>
  <path transform="rotate(-45 256.0109252929688,209.98361206054688) " clip-rule="evenodd" d="m86.072433,212.791626l58.464005,-4.464005l40.428009,-0.216019l241.199982,-1.835983l-0.071991,1.475998l-74.160034,0.251984l-207.322968,1.26001l-58.751999,4.428009l0.214996,-0.899994z" fill="#FFFFFF" fill-rule="evenodd" stroke="#000000" stroke-miterlimit="10" stroke-width="0.036" id="svg_9"/>
  <path transform="rotate(-45 271.37353515625006,225.421875) " clip-rule="evenodd" d="m100.517525,236.293381l59.976006,1.080002l281.735992,-22.211014l-0.144989,-1.691986l-281.735992,22.177002l-59.760017,-0.503998l-0.070999,1.149994z" fill-rule="evenodd" stroke="#000000" stroke-miterlimit="10" stroke-width="0.036" id="svg_10"/>
  <path transform="rotate(-45 271.3477172851563,225.44841003417972) " clip-rule="evenodd" d="m100.85173,235.997421l58.896011,1.042999l40.319992,-3.167999l241.775986,-18.972015l-0.144989,-1.044006l-75.238007,6.156006l-206.712997,16.09201l-58.680008,-0.576004l-0.215988,0.469009z" fill="#FFFFFF" fill-rule="evenodd" stroke="#000000" stroke-miterlimit="10" stroke-width="0.036" id="svg_11"/>
  <path transform="rotate(-45 265.83651733398426,219.96266174316406) " clip-rule="evenodd" d="m96.006531,227.306656l59.976013,1.080002l279.68396,-15.192001l-0.071991,-1.655991l-279.755966,15.119995l-59.760017,-0.503998l-0.071999,1.151993l0,0z" fill-rule="evenodd" stroke="#000000" stroke-miterlimit="10" stroke-width="0.036" id="svg_12"/>
  <path transform="rotate(-45 265.83618164062494,220.0132293701172) " clip-rule="evenodd" d="m96.402184,226.960724l58.896004,1.080002l279.971985,-15.119003l-0.144989,-0.936005l-279.862991,15.084l-58.680008,-0.575989l-0.18,0.466995l0,0z" fill="#FFFFFF" fill-rule="evenodd" stroke="#000000" stroke-miterlimit="10" stroke-width="0.036" id="svg_13"/>
  <path transform="rotate(-45 260.77081298828125,214.51510620117182) " clip-rule="evenodd" d="m91.139816,220.221115l59.759995,-0.68399l279.503998,-9.144012l0.035004,-1.584l-279.68399,9.035995l-59.651993,1.26001l0.036987,1.115997z" fill-rule="evenodd" stroke="#000000" stroke-miterlimit="10" stroke-width="0.036" id="svg_14"/>
  <path transform="rotate(-45 260.75845336914057,214.5783996582031) " clip-rule="evenodd" d="m91.503944,219.996399l58.680016,-0.792007l279.82901,-9.179993l0,-0.864014l-279.82901,9.108002l-58.644012,1.080017l-0.036003,0.647995z" fill="#FFFFFF" fill-rule="evenodd" stroke="#000000" stroke-miterlimit="10" stroke-width="0.036" id="svg_15"/>
  <path transform="rotate(-45 137.0610351562499,332.89810180664057) " clip-rule="evenodd" d="m141.818481,331.318726c-0.576004,0.036011 -1.296005,0.036011 -2.160004,0.143982c-0.935989,0.108002 -2.015991,0.180023 -3.23999,0.359985c-0.468002,-0.395966 -0.972,-0.539978 -1.368011,-0.431976c-0.467987,0.071991 -0.899994,0.467987 -1.151993,0.899994c-0.287994,0.360016 -0.863998,0.756012 -0.612,1.332001c0.108002,0.467987 0.576004,1.008026 1.403992,1.620026c-0.467987,-0.036011 -1.007996,-0.360046 -1.332001,-0.684021c-0.467987,-0.503998 -1.043991,-1.044006 -1.043991,-1.619995c-0.108002,-0.64801 0.612,-1.368011 1.043991,-1.764008c0.432007,-0.503998 0.900009,-0.575989 1.548004,-0.612c0.503998,-0.071991 1.223999,0.287994 1.872009,0.68399c1.655991,0 3.347992,0.036011 5.039993,0.072021z" fill="#FFFFFF" fill-rule="evenodd" stroke="#000000" stroke-miterlimit="10" stroke-width="0.036" id="svg_16"/>
  <path transform="rotate(-45 143.0977630615234,338.7021484375) " clip-rule="evenodd" d="m147.834671,337.102051c-0.576004,0 -1.296005,0.108002 -2.160004,0.179993c-0.936005,0.108032 -2.016006,0.180023 -3.240005,0.360016c-0.503998,-0.432007 -0.899994,-0.540009 -1.332001,-0.467987c-0.431992,0.107971 -0.972,0.359985 -1.187988,0.899994c-0.28801,0.359985 -0.864014,0.756012 -0.612,1.332001c0.107986,0.467987 0.575989,1.007996 1.403992,1.619995c-0.468002,-0.071991 -1.007996,-0.287994 -1.332001,-0.64801c-0.468002,-0.395996 -1.080002,-1.115997 -1.007996,-1.619995c-0.072006,-0.612 0.539993,-1.440002 1.007996,-1.799988c0.395996,-0.432007 0.972,-0.575989 1.584,-0.575989c0.540009,-0.036011 1.152008,0.179993 1.835999,0.64798c1.656006,0 3.348007,0.036011 5.040009,0.071991z" fill="#FFFFFF" fill-rule="evenodd" stroke="#000000" stroke-miterlimit="10" stroke-width="0.036" id="svg_17"/>
  <path transform="rotate(-45 148.84893798828134,345.45135498046875) " clip-rule="evenodd" d="m153.643555,344.444153c-0.503998,-0.071991 -1.259995,-0.036987 -2.123993,-0.036987c-0.936005,0 -1.979996,0.036987 -3.276001,0.109009c-0.468002,-0.434021 -0.899994,-0.613007 -1.296005,-0.541016c-0.503998,0.036987 -0.972,0.395996 -1.259995,0.792999c-0.324005,0.287018 -0.936005,0.756012 -0.720001,1.26001c0.072006,0.503998 0.503998,1.042999 1.296005,1.764008c-0.503998,-0.180023 -0.936005,-0.396027 -1.296005,-0.79303c-0.431992,-0.539001 -1.007996,-1.149994 -0.899994,-1.690979c0,-0.684021 0.720001,-1.295013 1.187988,-1.69101c0.396011,-0.324005 0.972,-0.612 1.584,-0.468994c0.540009,0.106995 1.188004,0.251984 1.800003,0.828003c1.656998,0.143982 3.311996,0.289001 5.003998,0.467987z" fill="#FFFFFF" fill-rule="evenodd" stroke="#000000" stroke-miterlimit="10" stroke-width="0.036" id="svg_18"/>
  <path transform="rotate(-45 155.92430114746097,353.63861083984375) " clip-rule="evenodd" d="m160.749146,353.576111c-0.503998,-0.182007 -1.26001,-0.144989 -2.123993,-0.289001c-0.936005,-0.144989 -1.980011,-0.251984 -3.276001,-0.324005c-0.432007,-0.538971 -0.792007,-0.64798 -1.224014,-0.718994c-0.467987,-0.036987 -1.007996,0.214996 -1.331985,0.611023c-0.360016,0.251984 -0.972015,0.64798 -0.864014,1.187988c0.072006,0.468994 0.28801,1.152008 1.044006,1.90799c-0.468002,-0.179993 -0.899994,-0.539001 -1.152008,-0.936005c-0.360001,-0.575989 -0.863983,-1.224976 -0.68399,-1.800995c0.108002,-0.64798 0.791992,-1.259979 1.367996,-1.546997c0.432007,-0.252014 1.080002,-0.468994 1.656006,-0.252014c0.468002,0.180023 1.151993,0.39502 1.656006,1.04303c1.61998,0.359985 3.276993,0.720978 4.931992,1.117981z" fill="#FFFFFF" fill-rule="evenodd" stroke="#000000" stroke-miterlimit="10" stroke-width="0.036" id="svg_19"/>
  <path transform="rotate(-45 358.04638671874994,76.32532501220705) " clip-rule="evenodd" d="m354.664246,92.458061l-0.109009,-12.348007c-0.718994,-0.431992 -0.89801,-0.899994 -0.936035,-1.259995c0.072021,-0.360001 0.289001,-0.755997 1.045044,-1.044006c0.214966,-0.936005 -0.072021,-1.548004 -0.468994,-1.979996c-0.57605,-0.503998 -1.584045,-0.108002 -2.447021,-0.612c-1.007996,-0.576004 -2.305023,-1.548004 -2.77301,-2.772003c-0.575989,-1.367996 -0.863007,-3.276001 0.109039,-5.147995c1.007965,-2.016006 3.743958,-5.040009 5.83194,-6.156006c1.979004,-1.187988 3.779053,-1.151993 5.795013,-0.467987c1.836029,0.719986 4.393036,2.556 5.580017,4.535995c1.079987,1.763992 1.764008,4.715988 1.079987,6.515991c-0.862976,1.764008 -4.679993,3.132004 -5.61499,4.104004c-0.899994,0.828003 -0.899994,1.296005 0.143005,1.259995c0.252014,0.180008 0.361023,0.540009 0.323975,0.936005c-0.106995,0.360001 -0.323975,0.863998 -0.790955,1.511993l0.106995,12.096008c-2.268036,0.251999 -4.572021,0.540009 -6.875,0.828003z" fill-rule="evenodd" stroke="#000000" stroke-miterlimit="10" stroke-width="0.036" id="svg_20"/>
  <path transform="rotate(-45 371.2376708984375,62.76138305664069) " clip-rule="evenodd" d="m368.016693,78.581604l0,-14.220001c0.610992,-0.647995 0.863007,-1.223999 0.610992,-1.727997c-0.289001,-0.576004 -1.079987,-1.080002 -2.231995,-1.512009c1.045013,-1.475998 1.69101,-3.167999 2.088013,-5.363998c0.289001,-2.159988 -0.503998,-6.155991 0,-7.559998c0.431976,-1.619995 1.656006,-1.475998 2.700989,-1.511993c0.936005,-0.180008 2.412018,-0.072006 2.916016,1.151993c0.214996,1.26001 -0.865021,3.81601 -0.613007,6.156006c0.289001,2.195999 1.152008,4.571991 2.59198,7.127991c-0.645996,0.324005 -1.042999,0.756012 -1.187988,1.152008s-0.106995,0.863998 0.252014,1.403992l0,14.652008l-6.299011,0.575989l-0.828003,-0.32399z" fill-rule="evenodd" stroke="#000000" stroke-miterlimit="10" stroke-width="0.036" id="svg_21"/>
  <path transform="rotate(-45 400.3912963867188,104.92079162597658) " clip-rule="evenodd" d="m397.185791,89.143082l0,14.220993c0.648041,0.611008 0.79303,1.188004 0.575989,1.727005c-0.323975,0.541 -1.007965,1.044998 -2.194946,1.512009c1.044983,1.440994 1.690979,3.132996 2.087982,5.36499c0.287018,2.050995 -0.503998,6.047012 0,7.559006c0.324005,1.514008 1.764008,1.369019 2.663971,1.514008c0.936035,0.072021 2.412048,-0.036987 2.916016,-1.152008c0.324036,-1.368988 -0.935974,-3.923981 -0.575989,-6.156006c0.289001,-2.23201 1.187988,-4.60701 2.557007,-7.128998c-0.613037,-0.358994 -1.044983,-0.791 -1.152039,-1.150009c-0.179993,-0.43399 -0.106964,-0.899994 0.217041,-1.403992l0,-14.654999l-6.265991,-0.612l-0.829041,0.360001z" fill-rule="evenodd" stroke="#000000" stroke-miterlimit="10" stroke-width="0.036" id="svg_22"/>
  <path transform="rotate(-45 410.392578125,92.62344360351565) " clip-rule="evenodd" d="m407.006592,76.525314l-0.106995,12.348999c-0.718994,0.395004 -0.900024,0.862991 -0.936005,1.259995c0.071991,0.395996 0.286987,0.756012 1.042999,1.080002c0.21701,0.900009 -0.070007,1.512009 -0.46701,1.979996c-0.575989,0.432007 -1.583984,-0.071991 -2.449005,0.574005c-1.007996,0.468994 -2.302979,1.44101 -2.770996,2.77301c-0.575989,1.259995 -0.863007,3.202988 0.109009,5.147995c1.007996,1.905991 3.742004,4.932007 5.832001,6.154022c1.979004,1.117004 3.778992,1.044983 5.795013,0.468994c1.90799,-0.828003 4.427979,-2.664001 5.61499,-4.535019c1.152008,-1.873001 1.692993,-4.789001 1.044983,-6.518005c-0.755981,-1.798996 -4.751984,-3.203003 -5.579987,-4.065994c-0.972992,-0.938004 -0.936005,-1.369003 0.106995,-1.297012c0.324005,-0.21698 0.395996,-0.575989 0.360992,-0.935989c-0.071991,-0.431992 -0.395996,-0.935989 -0.828003,-1.512009l0.107025,-12.096985c-2.265991,-0.25 -4.571014,-0.53801 -6.876007,-0.826004z" fill-rule="evenodd" stroke="#000000" stroke-miterlimit="10" stroke-width="0.036" id="svg_23"/>
 </g>
</svg>